<svg xmlns="http://www.w3.org/2000/svg" viewBox="0 0 200 200" aria-hidden="true" ><path fill="#ff8a14" d="M113.7 51C117.9 52.8 131.2 50.3 134.9 48.2C138.6 46.2 133.8 39.9 136.1 38.9C138.4 37.9 145.7 39.8 148.7 42.4C151.7 44.9 154.8 51.7 154.2 54.2C153.6 56.6 146.8 51.8 145.2 57C143.6 62.1 142.1 78.4 144.6 85.1C147.1 91.9 160.1 91.9 160.2 97.3C160.4 102.7 147.1 110.8 145.5 117.8C143.8 124.8 147.9 134.8 150.4 139.3C152.8 143.8 159.3 141.9 160.2 144.8C161.2 147.7 158.8 154 156.1 156.7C153.4 159.3 147 161.7 144.2 160.7C141.3 159.7 142.5 153.1 138.8 150.8C135 148.4 127.2 145.2 121.8 146.6C116.3 148 112.5 159.5 106.3 159C100.1 158.6 91.7 146.2 84.7 143.9C77.6 141.5 68.3 148.8 63.7 145C59.1 141.2 61.1 125.8 57 121.2C52.9 116.6 43.7 117.2 39.3 117.4C34.8 117.5 33.1 123.1 30.4 122.2C27.7 121.3 23.8 115.5 23.3 111.8C22.7 108 24.7 101.4 26.9 99.7C29.2 98 32.3 103.8 36.8 101.7C41.4 99.5 51.5 92.9 54.4 86.9C57.2 81 49.3 71.6 54.1 66.2C58.9 60.8 76.2 59.3 82.9 54.5C89.6 49.6 93 41.5 94.1 36.9C95.2 32.4 88.1 29.7 89.5 27.2C90.9 24.7 98.2 21.8 102.4 21.9C106.6 22 113.7 25.4 114.9 28C116.2 30.6 109.9 33.6 109.7 37.4C109.5 41.2 109.5 49.2 113.7 51Z"/></svg>