<svg xmlns="http://www.w3.org/2000/svg" viewBox="0 0 200 200" aria-hidden="true" ><path fill="#ff8a14" d="M51.7 116.1C48.5 109.7 39.7 104.4 34.5 102.5C29.3 100.6 23.7 106.4 20.6 104.8C17.4 103.3 15.4 96.8 15.7 93C16 89.3 19.1 83.3 22.4 82.2C25.8 81.2 30 88.4 35.8 86.8C41.6 85.2 54.1 77.5 57.3 72.5C60.5 67.6 57.1 59.8 55.1 56.8C53.2 53.9 46.2 57.4 45.7 55C45.2 52.6 48.8 45.1 52.1 42.4C55.4 39.6 63.3 37.5 65.6 38.4C67.9 39.4 62.5 45.6 65.7 48C69 50.5 79.1 54.8 85.1 53.2C91.2 51.5 95.7 38 102.1 38.1C108.6 38.2 117.4 51.6 123.7 53.8C130.1 56 136.9 53.5 140 51.3C143.1 49.2 139.7 41.8 142.4 41.1C145.1 40.4 153 43.8 156.2 47.1C159.4 50.5 162.3 58.6 161.4 61.3C160.5 63.9 153.9 59.1 151 63C148.1 66.9 142.4 78.2 144 84.5C145.6 90.8 161 94.5 160.8 100.7C160.6 106.9 145.1 114.4 142.9 121.5C140.7 128.7 144.7 139.4 147.7 143.7C150.7 148.1 159.7 144.7 160.9 147.6C162 150.6 158 158.3 154.5 161.4C151 164.5 142.8 167.6 140 166.1C137.2 164.6 142.6 155.7 137.7 152.6C132.8 149.5 118.4 146.6 110.6 147.3C102.9 148 97.3 157.8 91.1 157C85 156.2 80.2 145.4 74 142.7C67.7 140.1 57.4 145.5 53.7 141.1C50 136.7 54.9 122.5 51.7 116.1Z"/></svg>