<svg xmlns="http://www.w3.org/2000/svg" class="iw-pvsvg" viewBox="0 0 320 180" aria-hidden="true">
      <rect x="1" y="1" width="318" height="178" rx="14" fill="#efe4cf"/>
      <g stroke="#dccdb0" stroke-width="2"><path d="M0 0 V180"/><path d="M40 0 V180"/><path d="M80 0 V180"/><path d="M120 0 V180"/><path d="M160 0 V180"/><path d="M200 0 V180"/><path d="M240 0 V180"/><path d="M280 0 V180"/><path d="M320 0 V180"/><path d="M0 0 H320"/><path d="M0 40 H320"/><path d="M0 80 H320"/><path d="M0 120 H320"/><path d="M0 160 H320"/></g>
      <rect x="36" y="44" width="34" height="22" rx="5" fill="#cdbd9f"/><rect x="36" y="40" width="34" height="22" rx="5" fill="#fffaf0" stroke="#cdbd9f" stroke-width="2"/><rect x="238" y="40" width="40" height="26" rx="5" fill="#cdbd9f"/><rect x="238" y="36" width="40" height="26" rx="5" fill="#fffaf0" stroke="#cdbd9f" stroke-width="2"/><rect x="120" y="68" width="30" height="20" rx="5" fill="#cdbd9f"/><rect x="120" y="64" width="30" height="20" rx="5" fill="#fffaf0" stroke="#cdbd9f" stroke-width="2"/><rect x="72" y="122" width="26" height="26" rx="5" fill="#cdbd9f"/><rect x="72" y="118" width="26" height="26" rx="5" fill="#fffaf0" stroke="#cdbd9f" stroke-width="2"/><rect x="226" y="118" width="30" height="22" rx="5" fill="#cdbd9f"/><rect x="226" y="114" width="30" height="22" rx="5" fill="#fffaf0" stroke="#cdbd9f" stroke-width="2"/>
      <path fill="none" stroke="#15121c" opacity=".38" stroke-width="2" stroke-dasharray="5 5" d="M160 172 L56.3 52.8 A158 158 0 0 1 263.7 52.8 Z"/>
      <path class="iw-pv-fov__wedge" fill="#ff8a14" fill-opacity=".28" stroke="#ff8a14" stroke-width="2.5" d="M160 172 L56.3 52.8 A158 158 0 0 1 263.7 52.8 Z"/>
      <g class="iw-pv-fov__t" transform="translate(59.9 109.5)"><circle r="10" fill="white" fill-opacity=".85"/><circle r="6.5" fill="#2f5bff" stroke="#15121c" stroke-width="2.5"/><circle cx="-1.8" cy="-1" r="1.4" fill="#fff"/><circle cx="1.8" cy="-1" r="1.4" fill="#fff"/></g><g class="iw-pv-fov__t" transform="translate(108.2 122.0)"><circle r="10" fill="white" fill-opacity=".85"/><circle r="6.5" fill="#2f5bff" stroke="#15121c" stroke-width="2.5"/><circle cx="-1.8" cy="-1" r="1.4" fill="#fff"/><circle cx="1.8" cy="-1" r="1.4" fill="#fff"/></g><g class="iw-pv-fov__t" transform="translate(86.6 67.1)"><circle r="10" fill="white" fill-opacity=".85"/><circle r="6.5" fill="#2f5bff" stroke="#15121c" stroke-width="2.5"/><circle cx="-1.8" cy="-1" r="1.4" fill="#fff"/><circle cx="1.8" cy="-1" r="1.4" fill="#fff"/></g><g class="iw-pv-fov__t" transform="translate(127.2 81.8)"><circle r="10" fill="white" fill-opacity=".85"/><circle r="6.5" fill="#2f5bff" stroke="#15121c" stroke-width="2.5"/><circle cx="-1.8" cy="-1" r="1.4" fill="#fff"/><circle cx="1.8" cy="-1" r="1.4" fill="#fff"/></g><g class="iw-pv-fov__t" transform="translate(150.2 32.3)"><circle r="10" fill="white" fill-opacity=".85"/><circle r="6.5" fill="#2f5bff" stroke="#15121c" stroke-width="2.5"/><circle cx="-1.8" cy="-1" r="1.4" fill="#fff"/><circle cx="1.8" cy="-1" r="1.4" fill="#fff"/></g><g class="iw-pv-fov__t" transform="translate(182.9 64.4)"><circle r="10" fill="white" fill-opacity=".85"/><circle r="6.5" fill="#2f5bff" stroke="#15121c" stroke-width="2.5"/><circle cx="-1.8" cy="-1" r="1.4" fill="#fff"/><circle cx="1.8" cy="-1" r="1.4" fill="#fff"/></g><g class="iw-pv-fov__t" transform="translate(195.4 102.5)"><circle r="10" fill="white" fill-opacity=".85"/><circle r="6.5" fill="#2f5bff" stroke="#15121c" stroke-width="2.5"/><circle cx="-1.8" cy="-1" r="1.4" fill="#fff"/><circle cx="1.8" cy="-1" r="1.4" fill="#fff"/></g><g class="iw-pv-fov__t" transform="translate(243.1 69.4)"><circle r="10" fill="white" fill-opacity=".85"/><circle r="6.5" fill="#2f5bff" stroke="#15121c" stroke-width="2.5"/><circle cx="-1.8" cy="-1" r="1.4" fill="#fff"/><circle cx="1.8" cy="-1" r="1.4" fill="#fff"/></g><g class="iw-pv-fov__t" transform="translate(235.5 106.4)"><circle r="10" fill="white" fill-opacity=".85"/><circle r="6.5" fill="#2f5bff" stroke="#15121c" stroke-width="2.5"/><circle cx="-1.8" cy="-1" r="1.4" fill="#fff"/><circle cx="1.8" cy="-1" r="1.4" fill="#fff"/></g><g class="iw-pv-fov__t" transform="translate(212.5 142.9)"><circle r="10" fill="white" fill-opacity=".85"/><circle r="6.5" fill="#2f5bff" stroke="#15121c" stroke-width="2.5"/><circle cx="-1.8" cy="-1" r="1.4" fill="#fff"/><circle cx="1.8" cy="-1" r="1.4" fill="#fff"/></g>
      <g transform="translate(146 142) scale(.44)" style="color:#ff8a14"><svg x="0" y="0" width="64" height="64" viewBox="0 0 64 64" aria-hidden="true"><g stroke="#15121c" stroke-width="3" stroke-linejoin="round" stroke-linecap="round" stroke-width="3.4">
    <path d="M22 44 Q19 53 13 58 Q20 61 26 50 Z" fill="#ff8a14"/>
    <path d="M29 46 Q28.5 55 25 61 Q32.5 61 33 48 Z" fill="#ff8a14"/>
    <path d="M35 46 Q35.5 55 39 61 Q31.5 61 31 48 Z" fill="#ff8a14"/>
    <path d="M42 44 Q45 53 51 58 Q44 61 38 50 Z" fill="#ff8a14"/>
    <path d="M32 3 C36.5 3 50.5 17.5 55.5 24.5 C57.5 27.8 55.5 31 51.5 30.2 L46 29.4 L46 39.5 C46 46.5 41.5 49 32 49 C22.5 49 18 46.5 18 39.5 L18 29.4 L12.5 30.2 C8.5 31 6.5 27.8 8.5 24.5 C13.5 17.5 27.5 3 32 3 Z" fill="#ff8a14"/>
  </g>
  <path d="M25 13 Q29 8.5 32 8" stroke="#fff" stroke-opacity=".55" stroke-width="3" fill="none" stroke-linecap="round"/>
  <g class="iw-squid-eyes">
    <ellipse cx="26" cy="36" rx="4.6" ry="5.6" fill="#fff" stroke="#15121c" stroke-width="2.4"/>
    <ellipse cx="38" cy="36" rx="4.6" ry="5.6" fill="#fff" stroke="#15121c" stroke-width="2.4"/>
    <ellipse cx="27" cy="37" rx="2.2" ry="3" fill="#15121c"/>
    <ellipse cx="37" cy="37" rx="2.2" ry="3" fill="#15121c"/>
  </g></svg></g>
      <rect x="1" y="1" width="318" height="178" rx="14" fill="none" stroke="#15121c" stroke-width="3"/>
    </svg>